# xmcd
# 
# Track frame offsets:
#     150
#     16100
#     34200
#     52950
#     69987
#     87132
#     100002
#     125165
#     144720
#     164780
#     177997
#     194517
#     217602
#     232095
# 
# Disc length: 3531
# 
# Revision: 2
# Processed by: cddbd v1.5.2PL0 Copyright (c) Steve Scherf et al.
# Submitted via: fre:ac v1.0.31
# 
DISCID=c20dc90e
DTITLE=Robert Cray Band - Heavy Picks
DYEAR=1999
DGENRE=Blues
TTITLE0=Phone Booth
TTITLE1=Forecast (Calls For Pain)
TTITLE2=Smoking Gun
TTITLE3=Playin' In The Dirt
TTITLE4=Don't Be Afraid Of The Dark
TTITLE5=Too Many Cooks
TTITLE6=The Dream
TTITLE7=Right Next Door (Because Of Me)
TTITLE8=Consequences
TTITLE9=Bad Influence
TTITLE10=I Guess I Showed Her
TTITLE11=I Shiver
TTITLE12=Trick Or Treat
TTITLE13=I Was Warned
EXTD=
EXTT0=
EXTT1=
EXTT2=
EXTT3=
EXTT4=
EXTT5=
EXTT6=
EXTT7=
EXTT8=
EXTT9=
EXTT10=
EXTT11=
EXTT12=
EXTT13=
PLAYORDER=
